<svg width="52" height="36" viewBox="0 0 52 36" fill="none" xmlns="http://www.w3.org/2000/svg">
<path d="M0.244 0.851998H9.268C12.884 0.851998 15.636 1.844 17.524 3.828C19.444 5.812 20.404 8.452 20.404 11.748V24.9C20.404 31.3 17.012 34.5 10.228 34.5H0.244V0.851998ZM15.124 11.268C15.124 9.508 14.676 8.228 13.78 7.428C12.916 6.596 11.572 6.18 9.748 6.18H5.524V29.652H9.46C11.188 29.652 12.564 29.396 13.588 28.884C14.612 28.34 15.124 27.172 15.124 25.38V11.268ZM30.724 0.899998H40.516C43.172 0.899998 45.38 1.636 47.14 3.108C48.9 4.58 49.78 6.676 49.78 9.396C49.78 10.676 49.572 11.892 49.156 13.044C48.74 14.196 47.892 15.204 46.612 16.068L46.564 16.164V16.212C47.972 16.852 49.14 17.876 50.068 19.284C51.028 20.692 51.508 22.484 51.508 24.66C51.508 26.324 51.172 27.908 50.5 29.412C49.828 30.884 48.724 32.1 47.188 33.06C45.652 34.02 43.668 34.5 41.236 34.5H30.724V0.899998ZM38.308 14.676C40.132 14.676 41.476 14.34 42.34 13.668C43.204 12.996 43.636 11.844 43.636 10.212C43.636 8.708 43.236 7.668 42.436 7.092C41.636 6.484 40.42 6.18 38.788 6.18H36.004V14.676H38.308ZM38.932 29.652C40.404 29.652 41.588 29.54 42.484 29.316C43.412 29.06 44.132 28.564 44.644 27.828C45.188 27.092 45.46 26.004 45.46 24.564C45.46 22.74 44.9 21.492 43.78 20.82C42.66 20.116 41.188 19.764 39.364 19.764H36.004V29.652H38.932Z" fill="#B6B6B6"/>
<path d="M35.5803 25.62C35.5803 28.852 34.5883 31.236 32.6043 32.772C30.6523 34.276 28.3003 35.028 25.5483 35.028C23.8203 35.028 22.1883 34.724 20.6523 34.116C19.1163 33.476 17.8522 32.452 16.8602 31.044C15.9002 29.636 15.4202 27.828 15.4202 25.62V10.164C15.4202 6.868 16.3162 4.372 18.1082 2.676C19.9323 0.979999 22.4283 0.131999 25.5963 0.131999C28.7643 0.131999 31.2123 1.028 32.9403 2.82C34.7003 4.612 35.5803 7.076 35.5803 10.212V25.62ZM30.3003 11.94C30.3003 10.596 30.1883 9.492 29.9643 8.628C29.7403 7.764 29.2763 7.092 28.5723 6.612C27.8683 6.1 26.8443 5.844 25.5002 5.844C24.1562 5.844 23.1323 6.084 22.4283 6.564C21.7243 7.044 21.2603 7.716 21.0363 8.58C20.8123 9.412 20.7003 10.516 20.7003 11.892V24.708C20.7003 26.244 21.0843 27.46 21.8523 28.356C22.6523 29.22 23.8683 29.652 25.5002 29.652C27.0043 29.652 28.1723 29.188 29.0043 28.26C29.8683 27.332 30.3003 26.116 30.3003 24.612V11.94Z" fill="#666666"/>
</svg>
