<svg width="53" height="36" viewBox="0 0 53 36" fill="none" xmlns="http://www.w3.org/2000/svg">
<path d="M0.744 1.352H9.768C13.384 1.352 16.136 2.344 18.024 4.328C19.944 6.312 20.904 8.952 20.904 12.248V25.4C20.904 31.8 17.512 35 10.728 35H0.744V1.352ZM15.624 11.768C15.624 10.008 15.176 8.728 14.28 7.928C13.416 7.096 12.072 6.68 10.248 6.68H6.024V30.152H9.96C11.688 30.152 13.064 29.896 14.088 29.384C15.112 28.84 15.624 27.672 15.624 25.88V11.768ZM31.224 1.4H41.016C43.672 1.4 45.88 2.136 47.64 3.608C49.4 5.08 50.28 7.176 50.28 9.896C50.28 11.176 50.072 12.392 49.656 13.544C49.24 14.696 48.392 15.704 47.112 16.568L47.064 16.664V16.712C48.472 17.352 49.64 18.376 50.568 19.784C51.528 21.192 52.008 22.984 52.008 25.16C52.008 26.824 51.672 28.408 51 29.912C50.328 31.384 49.224 32.6 47.688 33.56C46.152 34.52 44.168 35 41.736 35H31.224V1.4ZM38.808 15.176C40.632 15.176 41.976 14.84 42.84 14.168C43.704 13.496 44.136 12.344 44.136 10.712C44.136 9.208 43.736 8.168 42.936 7.592C42.136 6.984 40.92 6.68 39.288 6.68H36.504V15.176H38.808ZM39.432 30.152C40.904 30.152 42.088 30.04 42.984 29.816C43.912 29.56 44.632 29.064 45.144 28.328C45.688 27.592 45.96 26.504 45.96 25.064C45.96 23.24 45.4 21.992 44.28 21.32C43.16 20.616 41.688 20.264 39.864 20.264H36.504V30.152H39.432Z" fill="#B6B6B6"/>
<path d="M36.0803 26.12C36.0803 29.352 35.0883 31.736 33.1043 33.272C31.1523 34.776 28.8003 35.528 26.0483 35.528C24.3203 35.528 22.6883 35.224 21.1523 34.616C19.6163 33.976 18.3522 32.952 17.3602 31.544C16.4002 30.136 15.9202 28.328 15.9202 26.12V10.664C15.9202 7.368 16.8162 4.872 18.6082 3.176C20.4323 1.48 22.9283 0.631999 26.0963 0.631999C29.2643 0.631999 31.7123 1.528 33.4403 3.32C35.2003 5.112 36.0803 7.576 36.0803 10.712V26.12ZM30.8003 12.44C30.8003 11.096 30.6883 9.992 30.4643 9.128C30.2403 8.264 29.7763 7.592 29.0723 7.112C28.3683 6.6 27.3443 6.344 26.0002 6.344C24.6562 6.344 23.6323 6.584 22.9283 7.064C22.2243 7.544 21.7603 8.216 21.5363 9.08C21.3123 9.912 21.2003 11.016 21.2003 12.392V25.208C21.2003 26.744 21.5843 27.96 22.3523 28.856C23.1523 29.72 24.3683 30.152 26.0002 30.152C27.5043 30.152 28.6723 29.688 29.5043 28.76C30.3683 27.832 30.8003 26.616 30.8003 25.112V12.44Z" fill="#666666"/>
</svg>
