<?xml version="1.0" encoding="utf-8"?>
<!-- Generator: Adobe Illustrator 26.0.3, SVG Export Plug-In . SVG Version: 6.00 Build 0)  -->
<svg version="1.1" id="Layer_1" xmlns="http://www.w3.org/2000/svg" xmlns:xlink="http://www.w3.org/1999/xlink" x="0px" y="0px"
	 viewBox="0 0 52 36" style="enable-background:new 0 0 52 36;" xml:space="preserve">
<style type="text/css">
	.st0{fill:#B6B6B6;}
	.st1{fill:#666666;}
</style>
<path class="st0" d="M0.2,0.9h9c3.6,0,6.4,1,8.3,3c1.9,2,2.9,4.6,2.9,7.9v13.2c0,6.4-3.4,9.6-10.2,9.6h-10V0.9z M15.1,11.3
	c0-1.8-0.4-3-1.3-3.8c-0.9-0.8-2.2-1.2-4-1.2H5.5v23.5h3.9c1.7,0,3.1-0.3,4.1-0.8c1-0.5,1.5-1.7,1.5-3.5V11.3z M30.7,0.9h9.8
	c2.7,0,4.9,0.7,6.6,2.2c1.8,1.5,2.6,3.6,2.6,6.3c0,1.3-0.2,2.5-0.6,3.6c-0.4,1.2-1.3,2.2-2.5,3l0,0.1v0c1.4,0.6,2.6,1.7,3.5,3.1
	c1,1.4,1.4,3.2,1.4,5.4c0,1.7-0.3,3.2-1,4.8c-0.7,1.5-1.8,2.7-3.3,3.6c-1.5,1-3.5,1.4-6,1.4H30.7V0.9z M38.3,14.7c1.8,0,3.2-0.3,4-1
	s1.3-1.8,1.3-3.5c0-1.5-0.4-2.5-1.2-3.1c-0.8-0.6-2-0.9-3.6-0.9H36v8.5H38.3z M38.9,29.7c1.5,0,2.7-0.1,3.6-0.3
	c0.9-0.3,1.6-0.8,2.2-1.5c0.5-0.7,0.8-1.8,0.8-3.3c0-1.8-0.6-3.1-1.7-3.7c-1.1-0.7-2.6-1.1-4.4-1.1H36v9.9H38.9z"/>
<path class="st1" d="M35.6,25.6c0,3.2-1,5.6-3,7.2c-2,1.5-4.3,2.3-7.1,2.3c-1.7,0-3.4-0.3-4.9-0.9c-1.5-0.6-2.8-1.7-3.8-3.1
	c-1-1.4-1.4-3.2-1.4-5.4V10.2c0-3.3,0.9-5.8,2.7-7.5c1.8-1.7,4.3-2.5,7.5-2.5s5.6,0.9,7.3,2.7c1.8,1.8,2.6,4.3,2.6,7.4V25.6z
	 M30.3,11.9c0-1.3-0.1-2.4-0.3-3.3c-0.2-0.9-0.7-1.5-1.4-2c-0.7-0.5-1.7-0.8-3.1-0.8c-1.3,0-2.4,0.2-3.1,0.7c-0.7,0.5-1.2,1.2-1.4,2
	c-0.2,0.8-0.3,1.9-0.3,3.3v12.8c0,1.5,0.4,2.8,1.2,3.6c0.8,0.9,2,1.3,3.6,1.3c1.5,0,2.7-0.5,3.5-1.4c0.9-0.9,1.3-2.1,1.3-3.6V11.9z"
	/>
</svg>
